<svg version="1.0" xmlns="http://www.w3.org/2000/svg"
 width="2000.000000pt" height="2000.000000pt" viewBox="0 0 2000.000000 2000.000000"
 preserveAspectRatio="xMidYMid meet">

<g transform="translate(0.000000,2000.000000) scale(0.100000,-0.100000)"
fill="#319795" stroke="none">
<path d="M9670 19991 c-8 -4 -112 -14 -230 -20 -1053 -59 -2080 -278 -3020
-644 -1290 -502 -2359 -1183 -3358 -2140 -544 -520 -1083 -1176 -1464 -1778
-276 -435 -526 -898 -715 -1324 -489 -1099 -766 -2204 -847 -3370 -9 -121 -18
-247 -22 -280 -10 -101 -7 -700 4 -875 68 -992 176 -1632 402 -2390 268 -897
626 -1691 1113 -2470 854 -1365 2026 -2507 3399 -3309 837 -488 1547 -791
2378 -1013 784 -210 1379 -309 2085 -348 110 -6 216 -16 235 -21 36 -11 690
-6 805 5 33 4 152 13 265 22 1406 104 2681 464 3920 1106 1143 593 2200 1442
3042 2444 282 335 675 888 897 1261 449 757 803 1565 1035 2369 146 506 189
708 300 1409 25 160 56 478 76 780 5 88 13 189 16 225 11 125 15 694 5 730 -5
19 -17 143 -26 275 -40 618 -129 1219 -251 1710 -61 242 -210 751 -279 955
-114 331 -263 681 -469 1105 -503 1031 -1202 1986 -2056 2810 -578 559 -1199
1022 -1895 1415 -555 313 -1573 767 -2030 905 -382 116 -614 175 -965 246
-563 114 -917 163 -1355 188 -99 6 -209 14 -245 17 -109 10 -734 14 -750 5z
m950 -971 c532 -40 971 -108 1390 -216 721 -186 1189 -358 1797 -662 750 -374
1347 -782 1983 -1356 172 -154 522 -503 635 -632 351 -398 523 -620 765 -982
183 -275 430 -684 430 -711 0 -21 17 -18 -315 -61 -126 -16 -347 -45 -490 -64
-143 -19 -476 -62 -740 -96 -264 -33 -615 -78 -780 -100 -462 -62 -1046 -138
-1190 -155 -71 -9 -141 -19 -154 -22 -21 -5 35 -64 494 -523 409 -409 516
-521 511 -536 -3 -11 -1027 -1040 -2275 -2288 l-2269 -2269 -28 21 c-16 11
-726 718 -1577 1570 -1142 1144 -1552 1549 -1566 1545 -9 -2 -1185 -1172
-2612 -2599 -1427 -1427 -2601 -2594 -2609 -2594 -26 0 -188 414 -336 858
-328 981 -489 2145 -445 3206 27 649 119 1307 261 1861 204 799 377 1280 676
1878 706 1412 1764 2628 3019 3469 988 662 1994 1084 3137 1317 252 51 327 63
638 100 251 30 448 48 605 55 145 7 907 -4 1045 -14z m7161 -4853 c626 -1250
952 -2565 984 -3977 11 -436 -14 -935 -66 -1340 -45 -356 -154 -911 -240
-1225 -221 -806 -473 -1433 -854 -2120 -257 -466 -496 -822 -838 -1250 -759
-948 -1603 -1657 -2682 -2252 -410 -227 -697 -356 -1190 -538 -691 -255 -1500
-428 -2265 -486 -224 -17 -1063 -18 -1285 -1 -302 23 -787 91 -1055 148 -794
170 -1453 398 -2105 729 -696 354 -1322 778 -1904 1289 -242 213 -613 591
-845 861 -243 284 -606 764 -606 804 0 19 4392 4411 4411 4411 8 0 723 -709
1590 -1576 l1576 -1576 2849 2846 c1567 1565 2853 2845 2859 2846 5 0 244
-234 530 -520 286 -286 524 -520 528 -520 4 0 7 31 7 69 0 39 9 130 20 203 10
73 40 293 65 488 25 195 67 526 94 735 28 209 73 556 101 770 27 215 68 532
90 705 49 381 89 670 96 690 9 26 40 -23 135 -213z"/>
</g>
</svg>
